<svg id="그룹_405" data-name="그룹 405" xmlns="http://www.w3.org/2000/svg" width="92" height="30.15" viewBox="0 0 92 30.15">
  <path id="패스_1843" data-name="패스 1843" d="M200.707,35.649l-2.474,1.6-3.479-2.791-5.226,3.375L190.6,42.17l-2.438,1.574-3.54-16.5L187.17,25.6Zm-8.222-2.8L187.531,29,189,35.1Z" transform="translate(-184.626 -13.595)" fill="#777"/>
  <path id="패스_1844" data-name="패스 1844" d="M209.025,34.727l-3.119.859-6.612-5.9,1.964,7.135-2.8.771L194.248,22.3l5.8-1.6a4.719,4.719,0,0,1,5.683,3.3,4.511,4.511,0,0,1-2.864,5.525ZM203,24.717a2.275,2.275,0,0,0-2.762-1.433l-2.559.7,1.134,4.117,2.641-.725A2.143,2.143,0,0,0,203,24.717Z" transform="translate(-176.366 -17.93)" fill="#777"/>
  <path id="패스_1845" data-name="패스 1845" d="M216.679,21.85l-3.73-.059-.214,13.37-2.9-.046.214-13.372-3.771-.061.039-2.539,10.4.171Z" transform="translate(-166.039 -19.142)" fill="#777"/>
  <path id="패스_1846" data-name="패스 1846" d="M229.4,27.9a4.677,4.677,0,0,1-5.826,2.985l-2.972-.918-1.963,6.349-2.851-.883,4.7-15.2,5.863,1.81A4.756,4.756,0,0,1,229.4,27.9Zm-2.879-.933a2.013,2.013,0,0,0-1.461-2.578l-2.535-.782-1.2,3.88,2.613.808A1.942,1.942,0,0,0,226.517,26.966Z" transform="translate(-157.878 -18.209)" fill="#777"/>
  <path id="패스_1847" data-name="패스 1847" d="M233.192,43.431l-8.168-5.378,8.752-13.284,8.17,5.378-1.468,2.226-5.78-3.806L232.765,31.5l5.678,3.737-1.349,2.05-5.678-3.739-2.561,3.888,5.782,3.806Z" transform="translate(-149.945 -14.312)" fill="#777"/>
</svg>
