<svg xmlns="http://www.w3.org/2000/svg" xmlns:xlink="http://www.w3.org/1999/xlink" width="59" height="60" viewBox="0 0 59 60">
  <defs>
    <clipPath id="clip-path">
      <rect id="사각형_1595" data-name="사각형 1595" width="59" height="60" transform="translate(0.427 -0.256)" fill="none"/>
    </clipPath>
  </defs>
  <g id="그룹_265" data-name="그룹 265" transform="translate(-0.427 0.256)">
    <g id="그룹_264" data-name="그룹 264" transform="translate(0 0)" clip-path="url(#clip-path)">
      <path id="패스_1601" data-name="패스 1601" d="M29.128,57.756A28.628,28.628,0,1,1,57.756,29.128,28.66,28.66,0,0,1,29.128,57.756" transform="translate(1.483 1.483)" fill="#fff"/>
      <path id="패스_1602" data-name="패스 1602" d="M29.326,1.4A27.93,27.93,0,1,1,1.4,29.326,27.961,27.961,0,0,1,29.326,1.4m0-1.4A29.326,29.326,0,1,0,58.652,29.326,29.412,29.412,0,0,0,29.326,0" transform="translate(0.418 0.418)" fill="#e6e6ea"/>
      <path id="youtube" d="M46.788,67.579a4.088,4.088,0,0,0-2.876-2.9C41.374,64,31.2,64,31.2,64s-10.174,0-12.711.684a4.088,4.088,0,0,0-2.876,2.9,46.028,46.028,0,0,0,0,15.763,4.027,4.027,0,0,0,2.876,2.849c2.537.684,12.711.684,12.711.684s10.174,0,12.711-.684a4.027,4.027,0,0,0,2.876-2.849,46.029,46.029,0,0,0,0-15.763ZM27.873,80.3V70.624l8.5,4.838Z" transform="translate(-0.628 -46.444)" fill="#777"/>
    </g>
  </g>
</svg>
