<svg xmlns="http://www.w3.org/2000/svg" xmlns:xlink="http://www.w3.org/1999/xlink" width="59" height="60" viewBox="0 0 59 60">
  <defs>
    <clipPath id="clip-path">
      <rect id="사각형_1595" data-name="사각형 1595" width="59" height="60" transform="translate(0.061 -0.256)" fill="none"/>
    </clipPath>
  </defs>
  <g id="그룹_266" data-name="그룹 266" transform="translate(-0.061 0.256)">
    <g id="그룹_264" data-name="그룹 264" transform="translate(0 0)" clip-path="url(#clip-path)">
      <path id="패스_1601" data-name="패스 1601" d="M29.128,57.756A28.628,28.628,0,1,1,57.756,29.128,28.66,28.66,0,0,1,29.128,57.756" transform="translate(1.483 1.483)" fill="#fff"/>
      <path id="패스_1602" data-name="패스 1602" d="M29.326,1.4A27.93,27.93,0,1,1,1.4,29.326,27.961,27.961,0,0,1,29.326,1.4m0-1.4A29.326,29.326,0,1,0,58.652,29.326,29.412,29.412,0,0,0,29.326,0" transform="translate(0.418 0.418)" fill="#e6e6ea"/>
      <path id="instagram" d="M13.825,38.647a7.18,7.18,0,1,0,7.125,7.18A7.141,7.141,0,0,0,13.825,38.647Zm0,11.848a4.668,4.668,0,1,1,4.632-4.668A4.658,4.658,0,0,1,13.825,50.494ZM22.9,38.353a1.662,1.662,0,1,1-1.662-1.675A1.664,1.664,0,0,1,22.9,38.353Zm4.719,1.7a8.323,8.323,0,0,0-2.245-5.868,8.242,8.242,0,0,0-5.822-2.262c-2.294-.131-9.171-.131-11.465,0a8.231,8.231,0,0,0-5.822,2.256A8.35,8.35,0,0,0,.023,40.047c-.13,2.312-.13,9.242,0,11.554a8.323,8.323,0,0,0,2.245,5.868A8.253,8.253,0,0,0,8.09,59.73c2.294.131,9.171.131,11.465,0a8.189,8.189,0,0,0,5.822-2.262A8.378,8.378,0,0,0,27.622,51.6C27.752,49.288,27.752,42.365,27.622,40.053ZM24.658,54.081a4.708,4.708,0,0,1-2.641,2.662c-1.829.731-6.17.562-8.191.562s-6.368.162-8.191-.562a4.708,4.708,0,0,1-2.641-2.662c-.725-1.843-.558-6.217-.558-8.255s-.161-6.417.558-8.255A4.708,4.708,0,0,1,5.634,34.91c1.829-.731,6.17-.562,8.191-.562s6.368-.162,8.191.562a4.708,4.708,0,0,1,2.641,2.662c.725,1.843.558,6.217.558,8.255S25.383,52.244,24.658,54.081Z" transform="translate(15.938 -15.961)" fill="#777"/>
    </g>
  </g>
</svg>
