<svg xmlns="http://www.w3.org/2000/svg" xmlns:xlink="http://www.w3.org/1999/xlink" width="60" height="60" viewBox="0 0 60 60">
  <defs>
    <clipPath id="clip-path">
      <rect id="사각형_1595" data-name="사각형 1595" width="60" height="60" transform="translate(-0.256 -0.256)" fill="none"/>
    </clipPath>
  </defs>
  <g id="그룹_264" data-name="그룹 264" transform="translate(0.256 0.256)">
    <g id="그룹_264-2" data-name="그룹 264" transform="translate(0 0)" clip-path="url(#clip-path)">
      <path id="패스_1601" data-name="패스 1601" d="M29.128,57.756A28.628,28.628,0,1,1,57.756,29.128,28.66,28.66,0,0,1,29.128,57.756" transform="translate(0.616 0.616)" fill="#fff"/>
      <path id="패스_1602" data-name="패스 1602" d="M29.326,1.4A27.93,27.93,0,1,1,1.4,29.326,27.961,27.961,0,0,1,29.326,1.4m0-1.4A29.326,29.326,0,1,0,58.652,29.326,29.412,29.412,0,0,0,29.326,0" transform="translate(0.418 0.418)" fill="#e6e6ea"/>
      <path id="패스_1603" data-name="패스 1603" d="M27.85,24.761,19.914,13.4H13.335V34.627h6.892V23.266l7.936,11.36h6.579V13.4H27.85Z" transform="translate(5.705 5.731)" fill="#777"/>
    </g>
  </g>
</svg>
