<svg xmlns="http://www.w3.org/2000/svg" width="14.864" height="15.482" viewBox="0 0 14.864 15.482">
  <path id="house" d="M46.464,30.191,40.27,24.348l-.009-.009a1.239,1.239,0,0,0-1.667,0l-.009.009L32.4,30.191a1.239,1.239,0,0,0-.4.912V38.26A1.239,1.239,0,0,0,33.239,39.5h3.716a1.239,1.239,0,0,0,1.239-1.239V34.544h2.477V38.26A1.239,1.239,0,0,0,41.909,39.5h3.716a1.239,1.239,0,0,0,1.239-1.239V31.1a1.239,1.239,0,0,0-.4-.912Zm-.838,8.069H41.909V34.544a1.239,1.239,0,0,0-1.239-1.239H38.193a1.239,1.239,0,0,0-1.239,1.239V38.26H33.239V31.1l.009-.008,6.185-5.841,6.186,5.839.009.008Z" transform="translate(-32 -24.017)" fill="#777"/>
</svg>
