<svg xmlns="http://www.w3.org/2000/svg" width="32.078" height="22.555" viewBox="0 0 32.078 22.555">
  <path id="youtube" d="M46.341,67.529a4.031,4.031,0,0,0-2.836-2.854C41,64,30.972,64,30.972,64s-10.031,0-12.533.675A4.031,4.031,0,0,0,15.6,67.529a45.383,45.383,0,0,0,0,15.543,3.971,3.971,0,0,0,2.836,2.809c2.5.675,12.533.675,12.533.675s10.031,0,12.533-.675a3.971,3.971,0,0,0,2.836-2.809,45.383,45.383,0,0,0,0-15.543ZM27.691,80.07V70.531l8.384,4.77-8.384,4.77Z" transform="translate(-14.933 -64)" fill="#777"/>
</svg>
