<svg xmlns="http://www.w3.org/2000/svg" width="29.459" height="29.681" viewBox="0 0 29.459 29.681">
  <path id="instagram" d="M14.658,39.056a7.61,7.61,0,1,0,7.551,7.61A7.569,7.569,0,0,0,14.658,39.056Zm0,12.557a4.947,4.947,0,1,1,4.909-4.947,4.937,4.937,0,0,1-4.909,4.947Zm9.621-12.868a1.761,1.761,0,1,1-1.761-1.775A1.764,1.764,0,0,1,24.279,38.744Zm5,1.8A8.822,8.822,0,0,0,26.9,34.327a8.736,8.736,0,0,0-6.171-2.4c-2.432-.139-9.72-.139-12.152,0A8.723,8.723,0,0,0,2.408,34.32,8.851,8.851,0,0,0,.029,40.539c-.138,2.45-.138,9.8,0,12.246A8.822,8.822,0,0,0,2.408,59a8.747,8.747,0,0,0,6.171,2.4c2.432.139,9.72.139,12.152,0A8.679,8.679,0,0,0,26.9,59a8.88,8.88,0,0,0,2.379-6.219C29.419,50.334,29.419,43,29.281,40.546ZM26.139,55.414a4.99,4.99,0,0,1-2.8,2.821c-1.939.775-6.539.6-8.682.6s-6.749.172-8.682-.6a4.99,4.99,0,0,1-2.8-2.821c-.769-1.954-.591-6.59-.591-8.749s-.171-6.8.591-8.749a4.99,4.99,0,0,1,2.8-2.821c1.939-.775,6.539-.6,8.682-.6s6.749-.172,8.682.6a4.99,4.99,0,0,1,2.8,2.821c.769,1.954.591,6.59.591,8.749S26.908,53.467,26.139,55.414Z" transform="translate(0.075 -31.825)" fill="#777"/>
</svg>
