<svg xmlns="http://www.w3.org/2000/svg" width="179.51" height="179.657" viewBox="0 0 179.51 179.657">
  <g id="그룹_19" data-name="그룹 19" transform="translate(0.525 0.521)">
    <path id="패스_49" data-name="패스 49" d="M939.437,731.676l-.13-.352c.946-.351,1.189-.733.918-1.463l-2.656-7.151c-.231-.622-.669-.767-1.615-.415l-.125-.338,4.19-1.556c3.3-1.225,5.58.7,6.479,3.116.909,2.447.428,5.378-2.87,6.6Zm1.639-2.131c.271.73.7.861,1.448.585l.974-.361c2.5-.929,2.924-3.64,2.081-5.911s-2.934-4.048-5.434-3.12l-.973.362c-.744.276-.981.672-.751,1.294Z" transform="translate(-882.147 -714.529)" fill="#253572" stroke="#253572" stroke-width="1"/>
    <path id="패스_50" data-name="패스 50" d="M954.4,726.385l-.081-.352c.956-.218,1.268-.6,1.113-1.275l-1.724-7.532c-.148-.646-.586-.812-1.541-.593l-.081-.352,7.378-1.689L961,716.755l-.178.19c-.9-.7-1.764-1.888-3.941-1.391l-1.378.315c-.73.168-1.052.507-.9,1.154l.775,3.386,2.136-.488c.983-.226,1.421-.77,1.115-2.1l.337-.078.9,3.934-.337.078c-.286-1.251-.946-1.676-1.929-1.452l-2.136.49.862,3.766c.154.674.6.882,1.346.712l1.321-.3c1.63-.373,2.473-1.276,3.241-3.093l.278.054-.389,2.692Z" transform="translate(-887.241 -712.828)" fill="#253572" stroke="#253572" stroke-width="1"/>
    <path id="패스_51" data-name="패스 51" d="M969.066,723.675l-.036-.358c1.076-.108,1.33-.466,1.261-1.155l-.773-7.717c-.063-.631-.373-.832-1.448-.724l-.036-.359,4.662-.467c2.224-.222,3.48.738,3.626,2.2A2.618,2.618,0,0,1,973.787,718l2.752,3.9c.354.5.768.59,1.529.514l.036.358-1.937.194-3.355-4.851-1.994.2.376,3.758c.068.689.475.981,1.479.881l.036.359Zm1.717-5.721,2.654-.265a2.034,2.034,0,0,0,1.895-2.493c-.136-1.363-1.122-2.09-2.671-1.935l-1.277.128c-.674.068-1.024.334-.961.966Z" transform="translate(-892.236 -712.286)" fill="#253572" stroke="#253572" stroke-width="1"/>
    <path id="패스_52" data-name="패스 52" d="M983.91,722.382l.016-.36c1.066.045,1.381-.229,1.411-.935l.337-7.853c.025-.576-.3-.807-1.335-.851l.016-.361,2.593.112,3,9.179,3.76-8.89,2.68.115-.015.361c-1.153-.049-1.394.172-1.418.733l-.336,7.853c-.027.634.26,1.007,1.341,1.053l-.015.36-3.646-.157.016-.361c1.052.046,1.384-.3,1.411-.935l.365-8.515-.159-.007-4.16,9.81-.231-.01L986.27,712.8l-.172-.007-.357,8.314c-.031.705.275,1.007,1.341,1.053l-.016.361Z" transform="translate(-897.21 -712.023)" fill="#253572" stroke="#253572" stroke-width="1"/>
    <path id="패스_53" data-name="패스 53" d="M1009.779,714.373l1.722,9.732a1.308,1.308,0,0,0,1.213,1.311l-.07.354-3.595-.706.069-.354c.934.183,1.381.153,1.467-.285a1.409,1.409,0,0,0,0-.442l-.454-2.559-4.261-.836-1.167,1.9a2.423,2.423,0,0,0-.27.624c-.1.51.284.732,1.218.915l-.069.354-3.086-.606.069-.354c.779.152,1.1.024,1.79-1.178l4.583-7.7Zm-.7.863-2.99,4.971,3.964.777Z" transform="translate(-903.032 -712.759)" fill="#253572" stroke="#253572" stroke-width="1"/>
    <path id="패스_54" data-name="패스 54" d="M1026.92,718.967l-.111.344c-1.03-.33-1.421-.2-1.631.462l-1.95,6.1c-.6,1.882-1.775,2.476-2.833,2.138-1.085-.347-1.835-.844-1.58-1.641.123-.385.434-.694.86-.558a.667.667,0,0,1,.454.948.619.619,0,0,0,.4.884c.769.245,1.361-.519,1.744-1.714l2.055-6.429c.211-.66-.017-.99-1.171-1.358l.11-.343Z" transform="translate(-908.129 -713.833)" fill="#253572" stroke="#253572" stroke-width="1"/>
    <path id="패스_55" data-name="패스 55" d="M1028.043,730.138l.146-.33c.9.4,1.375.278,1.655-.355l3.129-7.066c.268-.606.017-1-.88-1.4l.146-.33,6.92,3.064-.069,2.649-.256.045c-.3-1.1-.282-2.568-2.325-3.473l-1.292-.572c-.685-.3-1.147-.224-1.415.383l-1.407,3.177,2,.887c.923.409,1.6.235,2.154-1.018l.316.14-1.634,3.691-.317-.141c.52-1.173.246-1.908-.677-2.318l-2-.887-1.564,3.532c-.28.633-.047,1.068.652,1.377l1.24.549c1.529.677,2.745.459,4.447-.538l.191.21-1.923,1.923Z" transform="translate(-911.036 -714.729)" fill="#253572" stroke="#253572" stroke-width="1"/>
    <path id="패스_56" data-name="패스 56" d="M1051.145,739.253a4.244,4.244,0,0,1-5.046.491c-2.147-1.3-2.895-4.021-1.069-7.045,1.5-2.494,4.191-3.734,6.462-2.364a5.406,5.406,0,0,1,1.539,1.383l1.048.246-.512,2.773-.257-.021a4.839,4.839,0,0,0-1.98-4.059c-1.74-1.05-3.987.1-5.462,2.548-1.416,2.345-1.089,4.9.887,6.093,1.259.76,2.574.729,4.226-.279Z" transform="translate(-916.034 -717.582)" fill="#253572" stroke="#253572" stroke-width="1"/>
    <path id="패스_57" data-name="패스 57" d="M1057.063,746.367l.227-.282c.7.56,1.317.964,1.768.4l5.016-6.257c.379-.472.3-.834-.422-1.411a3.555,3.555,0,0,0-3.868-.364l-.085-.216,2.142-1.334,6.674,5.35-.888,2.468-.255-.075c.182-1.334.455-2.483-.94-3.6-.777-.623-1.281-.731-1.66-.258l-5.016,6.257c-.451.563-.046.98.776,1.639l-.226.282Z" transform="translate(-920.127 -719.818)" fill="#253572" stroke="#253572" stroke-width="1"/>
    <path id="패스_58" data-name="패스 58" d="M1079.375,768.463a2.618,2.618,0,0,1-2.395-.805,3.215,3.215,0,0,1-.579-2.051,4.5,4.5,0,0,1-2.437-1.465,3.263,3.263,0,0,1,.141-4.414c1.132-.94,2.43-1.025,4.33-.071a6.575,6.575,0,0,1,1.423-1.989,2.111,2.111,0,0,1,3.151.383,1.906,1.906,0,0,1-.212,2.747c-.655.544-1.553.84-3.792-.432a22.079,22.079,0,0,0-1.746,4.92,6.159,6.159,0,0,0,3.491-1.081c.411-.341.376-.744-.159-1.389l.277-.23,1.992,2.4-.277.231a1.156,1.156,0,0,0-1.613-.405,7.914,7.914,0,0,1-3.78.891,2.036,2.036,0,0,0,.343,1.5,2.179,2.179,0,0,0,1.907.985Zm-1.137-8.434a2.607,2.607,0,0,0-3.048.056,2.834,2.834,0,0,0-.393,4.041,2.949,2.949,0,0,0,1.665,1.055A18.316,18.316,0,0,1,1078.238,760.029Zm4.171.21a1.425,1.425,0,0,0,.271-1.932,1.4,1.4,0,0,0-2-.174,7.654,7.654,0,0,0-1.507,1.89C1080.884,761,1081.777,760.765,1082.409,760.239Z" transform="translate(-925.176 -726.153)" fill="#253572" stroke="#253572" stroke-width="1"/>
    <path id="패스_59" data-name="패스 59" d="M1085.542,779.31l.32-.166c.492.947.888,1.082,1.515.757l6.972-3.627c.512-.265.551-.66.072-1.581l.32-.167,1.2,2.3-6.459,7.179,9.579-1.178,1.238,2.38-.319.166c-.533-1.024-.844-1.122-1.343-.862l-6.973,3.627c-.562.293-.743.727-.243,1.687l-.32.166-1.684-3.237.319-.166c.486.933.952,1.049,1.516.755l7.562-3.932-.073-.141-10.577,1.29-.107-.2,6.972-7.787-.08-.154-7.382,3.839c-.627.326-.736.74-.244,1.687l-.32.166Z" transform="translate(-929.048 -731.603)" fill="#253572" stroke="#253572" stroke-width="1"/>
    <path id="패스_60" data-name="패스 60" d="M1093.987,796.6l.341-.115c.329.969.7,1.209,1.382.977l7.25-2.459c.683-.231.831-.648.5-1.617l.341-.115.625,1.843-6.107,9.015,7.128-2.418c.532-.181.63-.61.268-1.675l.341-.115,1.061,3.127-.341.116c-.306-.9-.676-1.232-1.2-1.056l-8.793,2.982-.074-.218,6.492-9.495-7.359,2.5c-.683.231-.84.619-.461,1.739l-.341.116Z" transform="translate(-931.694 -737.477)" fill="#253572" stroke="#253572" stroke-width="1"/>
    <path id="패스_61" data-name="패스 61" d="M1100.565,819.452l.372-.049c.132,1,.45,1.323,1.223,1.222l7.566-.992c.658-.087.9-.481.766-1.483l.357-.047.582,4.434c.458,3.49-1.926,5.286-4.486,5.622-2.588.339-5.34-.784-5.8-4.274Zm1.714,2.075c-.773.1-1,.494-.894,1.281l.135,1.029c.347,2.647,2.9,3.665,5.3,3.35s4.6-1.956,4.255-4.6l-.135-1.03c-.1-.787-.436-1.106-1.095-1.02Z" transform="translate(-933.755 -745.255)" fill="#253572" stroke="#253572" stroke-width="1"/>
    <path id="패스_62" data-name="패스 62" d="M1102.357,835.139l.36-.006c.017,1.081.353,1.365,1.045,1.354l7.757-.124c.635-.01.861-.3.844-1.384l.36-.005.076,4.686c.035,2.235-1.028,3.406-2.5,3.429a2.617,2.617,0,0,1-2.683-2.769l-4.115,2.416c-.529.311-.652.717-.639,1.482l-.361,0-.031-1.946,5.117-2.937-.032-2-3.778.061c-.692.011-1.018.391-1,1.4l-.361.005Zm5.559,2.189.043,2.667a2.034,2.034,0,0,0,2.326,2.1c1.37-.022,2.178-.944,2.153-2.5l-.021-1.284c-.011-.677-.247-1.049-.882-1.038Z" transform="translate(-934.316 -750.54)" fill="#253572" stroke="#253572" stroke-width="1"/>
    <path id="패스_63" data-name="패스 63" d="M1112.326,851.592l-.473,3.633-.358-.046c.133-1.016-.078-1.407-.679-1.485l-5.878-.766a2.959,2.959,0,0,0-3.361,2.791,2.783,2.783,0,0,0,2.61,3.41l5.821.759c.6.079.9-.188,1.038-1.261l.358.047-.411,3.147-.358-.046c.141-1.073-.078-1.407-.679-1.485l-5.907-.771c-2.3-.3-3.187-2-2.887-4.3a3.386,3.386,0,0,1,4.05-3.167l5.721.746c.6.078.892-.146,1.036-1.247Z" transform="translate(-933.924 -755.731)" fill="#253572" stroke="#253572" stroke-width="1"/>
    <path id="패스_64" data-name="패스 64" d="M1101.21,876.868l-.361-.1c.239-.876-.019-1.246-.672-1.424l-3.171-.867.171-.626.788-.038a4.729,4.729,0,0,1-.2-2.97c.723-2.642,3.006-3.885,6.413-2.954,3.059.837,4.745,3.256,4.03,5.87a5.791,5.791,0,0,1-.8,1.783l-.03,1.2-2.751.279-.037-.249a4.884,4.884,0,0,0,3.253-3.041c.548-2-1.056-4.115-3.851-4.879-3.337-.914-5.4.345-5.876,2.084-.41,1.5.371,3.015,1.219,3.247l1.084.3c.654.179,1.067-.022,1.41-1.274l.361.1Z" transform="translate(-932.64 -760.755)" fill="#253572" stroke="#253572" stroke-width="1"/>
    <path id="패스_65" data-name="패스 65" d="M1090.216,891.6l.328.182c-.49.882-.426,1.331.255,1.709l6.669,3.7c.579.322,1.006.147,1.5-.735l.315.175-2.17,3.907c-1.708,3.077-4.691,3.1-6.947,1.849-2.282-1.267-3.824-3.806-2.116-6.882Zm.142,2.685c-.681-.378-1.1-.2-1.481.5l-.5.908c-1.295,2.331.147,4.666,2.264,5.842s4.861,1.166,6.156-1.167l.5-.907c.385-.694.308-1.149-.273-1.471Z" transform="translate(-929.605 -768.28)" fill="#253572" stroke="#253572" stroke-width="1"/>
    <path id="패스_66" data-name="패스 66" d="M1081.859,904.946l.291.215c-.584.788-.571,1.281-.014,1.693l6.218,4.594c.534.394.974.235,1.557-.554l.29.215-4.5,6.09-2.572-.645.012-.26c1.136-.057,2.569.285,3.9-1.513l.841-1.137c.446-.6.468-1.071-.065-1.465l-2.8-2.066-1.3,1.763c-.6.812-.578,1.509.525,2.325l-.206.278-3.248-2.4.206-.278c1.032.762,1.811.656,2.41-.156l1.3-1.763-3.108-2.3c-.557-.411-1.032-.278-1.486.336l-.806,1.091c-.994,1.346-1.046,2.581-.444,4.46l-.248.14-1.459-2.3Z" transform="translate(-926.42 -772.46)" fill="#253572" stroke="#253572" stroke-width="1"/>
    <path id="패스_67" data-name="패스 67" d="M1072.523,916.5l.261.249c-.746.783-.7,1.22-.2,1.7l5.615,5.35c.459.438.825.388,1.571-.394l.261.248-3.232,3.392c-1.542,1.617-3.12,1.707-4.185.692a2.618,2.618,0,0,1,.03-3.855l-4.627-1.162c-.595-.149-.967.054-1.494.607l-.261-.249,1.342-1.409,5.705,1.494,1.383-1.45-2.734-2.605c-.5-.477-1-.435-1.7.3l-.261-.249Zm2.426,5.458-1.84,1.931a2.034,2.034,0,0,0,.188,3.126c.991.945,2.212.854,3.287-.273l.885-.929c.468-.49.559-.921.1-1.358Z" transform="translate(-923.008 -776.08)" fill="#253572" stroke="#253572" stroke-width="1"/>
    <path id="패스_68" data-name="패스 68" d="M1061.134,927.017l.222.284c-.838.659-.9,1.073-.462,1.628l4.854,6.179c.356.453.751.418,1.567-.223l.223.284-2.04,1.6-8.249-5.016,2.931,9.193-2.109,1.657-.223-.284c.907-.712.946-1.036.6-1.479l-4.854-6.179c-.392-.5-.853-.595-1.7.073l-.222-.284,2.868-2.254.223.284c-.828.65-.854,1.129-.462,1.628l5.264,6.7.125-.1-3.227-10.153.181-.142,8.942,5.407.136-.107-5.139-6.542c-.437-.556-.865-.586-1.7.073l-.222-.284Z" transform="translate(-918.436 -779.375)" fill="#253572" stroke="#253572" stroke-width="1"/>
    <path id="패스_69" data-name="패스 69" d="M1047.2,950.264,1039.559,944a1.308,1.308,0,0,0-1.774-.206l-.178-.314,3.188-1.8.178.314c-.828.469-1.148.783-.928,1.172a1.423,1.423,0,0,0,.288.334l2.01,1.647,3.778-2.138-.352-2.2a2.419,2.419,0,0,0-.2-.648c-.256-.451-.691-.371-1.52.1l-.177-.314,2.737-1.549.178.314c-.691.391-.85.7-.592,2.059l1.533,8.829Zm-.031-1.11-.966-5.719-3.515,1.99Z" transform="translate(-914.032 -782.935)" fill="#253572" stroke="#253572" stroke-width="1"/>
    <path id="패스_70" data-name="패스 70" d="M1034.012,957.974l-.14-.332c1-.422,1.207-.776.937-1.414l-2.493-5.9c-.77-1.82-.265-3.036.758-3.467,1.049-.444,1.942-.556,2.268.215a.7.7,0,0,1-.289.984.668.668,0,0,1-.963-.424.618.618,0,0,0-.878-.411c-.744.315-.7,1.281-.207,2.437l2.629,6.218c.27.638.657.74,1.773.268l.141.332Z" transform="translate(-912.257 -785.482)" fill="#253572" stroke="#253572" stroke-width="1"/>
    <path id="패스_71" data-name="패스 71" d="M1023.632,950.154l.1.345c-.939.283-1.224.685-1.025,1.349l2.23,7.4c.191.635.639.771,1.578.489l.1.345-7.251,2.185-1.674-2.057.165-.2c.944.635,1.888,1.766,4.028,1.122l1.353-.408c.718-.217,1.017-.578.825-1.213l-1-3.328-2.1.631c-.968.292-1.367.864-.972,2.176l-.332.1-1.165-3.867.331-.1c.37,1.229,1.058,1.61,2.025,1.319l2.1-.632-1.115-3.7c-.2-.663-.66-.841-1.391-.619l-1.3.391c-1.6.482-2.383,1.441-3.026,3.306l-.282-.035.207-2.714Z" transform="translate(-907.213 -786.623)" fill="#253572" stroke="#253572" stroke-width="1"/>
    <path id="패스_72" data-name="패스 72" d="M1001.232,958.7a4.244,4.244,0,0,1,3.511-3.657c2.474-.413,4.814,1.168,5.4,4.653.48,2.872-.751,5.563-3.367,6a5.429,5.429,0,0,1-2.069-.049l-.955.5-1.416-2.438.209-.152a4.835,4.835,0,0,0,4.144,1.792c2.005-.335,2.958-2.673,2.488-5.488-.452-2.7-2.364-4.429-4.639-4.048-1.45.243-2.428,1.123-3.027,2.963Z" transform="translate(-902.636 -788.134)" fill="#253572" stroke="#253572" stroke-width="1"/>
    <path id="패스_73" data-name="패스 73" d="M991.4,956.736l.012.361c-.893.03-1.625.126-1.6.847l.269,8.011c.02.605.316.825,1.237.795a3.55,3.55,0,0,0,3.171-2.24l.206.109-.756,2.4-8.544.286-.933-2.45.241-.109c.731,1.13,1.271,2.179,3.057,2.119.994-.034,1.447-.279,1.427-.885l-.268-8.011c-.023-.72-.6-.773-1.654-.738l-.012-.36Z" transform="translate(-897.383 -788.685)" fill="#253572" stroke="#253572" stroke-width="1"/>
    <path id="패스_74" data-name="패스 74" d="M960.364,955.253a2.617,2.617,0,0,1,2.34-.949,3.217,3.217,0,0,1,1.775,1.178,4.5,4.5,0,0,1,2.8-.475,3.262,3.262,0,0,1,2.768,3.438c-.247,1.45-1.176,2.36-3.238,2.874a6.554,6.554,0,0,1,.216,2.436,2.11,2.11,0,0,1-2.639,1.761,1.9,1.9,0,0,1-1.628-2.221c.142-.839.63-1.648,3.157-2.142a22.029,22.029,0,0,0-1.881-4.868,6.147,6.147,0,0,0-1.943,3.094c-.089.527.2.81,1.024.949l-.06.355-3.071-.52.06-.356a1.155,1.155,0,0,0,1.485-.743,7.918,7.918,0,0,1,2.287-3.138,2.036,2.036,0,0,0-1.234-.912,2.179,2.179,0,0,0-2.088.5Zm3.055,8.213a1.426,1.426,0,0,0,1.053,1.641,1.4,1.4,0,0,0,1.632-1.172,7.7,7.7,0,0,0-.089-2.414C964.08,961.9,963.557,962.655,963.419,963.466Zm3.3-2.556a2.608,2.608,0,0,0,2.275-2.029,2.834,2.834,0,0,0-2.333-3.322,2.956,2.956,0,0,0-1.95.285A18.285,18.285,0,0,1,966.719,960.91Z" transform="translate(-889.715 -787.913)" fill="#253572" stroke="#253572" stroke-width="1"/>
    <path id="패스_75" data-name="패스 75" d="M946.033,949.851l-.135.335c-.99-.4-1.378-.246-1.643.409l-2.941,7.287c-.216.534.011.859.974,1.248l-.135.334-2.407-.971.241-9.651-6.512,7.121-2.487-1,.135-.334c1.07.431,1.37.3,1.581-.217l2.941-7.287c.238-.589.092-1.036-.911-1.442l.135-.334,3.383,1.365-.135.334c-.977-.393-1.406-.178-1.643.411l-3.188,7.9.146.059,7.2-7.855.214.087-.236,10.447.161.065,3.114-7.715c.264-.655.078-1.041-.911-1.441l.135-.334Z" transform="translate(-880.631 -785.116)" fill="#253572" stroke="#253572" stroke-width="1"/>
    <path id="패스_76" data-name="패스 76" d="M929.21,942.651l-.184.31c-.88-.523-1.318-.464-1.686.157l-3.906,6.588c-.368.621-.21,1.032.671,1.555l-.184.31-1.675-.993-1.229-10.824-3.84,6.477c-.287.484-.082.873.886,1.447l-.185.31-2.84-1.685.183-.31c.819.485,1.317.5,1.6.023l4.738-7.99.2.118L923,949.585l3.965-6.687c.367-.62.234-1.018-.783-1.621l.184-.31Z" transform="translate(-875.634 -782.824)" fill="#253572" stroke="#253572" stroke-width="1"/>
    <path id="패스_77" data-name="패스 77" d="M910.919,930.38l-.25.279c-.752-.674-1.2-.711-1.724-.13l-5.094,5.681c-.443.494-.367.95.385,1.624l-.24.268-3.33-2.985c-2.621-2.349-1.983-5.266-.259-7.187,1.743-1.944,4.563-2.885,7.183-.536Zm-2.65-.459c.52-.58.434-1.025-.157-1.554l-.773-.693c-1.987-1.782-4.585-.895-6.2.91s-2.218,4.483-.231,6.264l.773.694c.591.529,1.052.555,1.495.061Z" transform="translate(-870.58 -779.058)" fill="#253572" stroke="#253572" stroke-width="1"/>
    <path id="패스_78" data-name="패스 78" d="M899.589,918.95l-.273.235c-.706-.819-1.146-.821-1.669-.369l-5.874,5.068c-.481.415-.467.783.24,1.6l-.273.236-3.061-3.548c-1.46-1.693-1.395-3.272-.281-4.233a2.617,2.617,0,0,1,3.835.405l1.61-4.493c.205-.578.04-.968-.459-1.547l.273-.236,1.272,1.474-2.044,5.534,1.309,1.518,2.861-2.467c.524-.453.531-.953-.129-1.718l.273-.236Zm-5.67,1.882-1.743-2.02a2.034,2.034,0,0,0-3.13-.118c-1.038.895-1.066,2.12-.049,3.3l.839.972c.442.513.862.646,1.343.231Z" transform="translate(-867.029 -774.692)" fill="#253572" stroke="#253572" stroke-width="1"/>
    <path id="패스_79" data-name="패스 79" d="M880.461,913.932l-2-3.066.3-.2c.561.857.975,1.017,1.482.685l4.962-3.243a2.958,2.958,0,0,0,.735-4.305,2.783,2.783,0,0,0-4.2-.89l-4.913,3.211c-.507.332-.559.727.034,1.632l-.3.2-1.736-2.656.3-.2c.593.906.975,1.018,1.483.685l4.985-3.258c1.943-1.27,3.721-.554,4.991,1.39a3.384,3.384,0,0,1-1.014,5.039l-4.828,3.155c-.507.332-.582.691.025,1.621Z" transform="translate(-863.035 -771.504)" fill="#253572" stroke="#253572" stroke-width="1"/>
    <path id="패스_80" data-name="패스 80" d="M872.613,887.321l.34-.16c.389.821.825.933,1.437.643l2.971-1.408.279.587-.573.542a4.733,4.733,0,0,1,2.09,2.122c1.172,2.477.249,4.909-2.944,6.42-2.868,1.358-5.723.62-6.884-1.832a5.769,5.769,0,0,1-.553-1.875l-.761-.933,1.907-2,.19.165a4.884,4.884,0,0,0-.488,4.428c.889,1.878,3.483,2.437,6.1,1.2,3.128-1.481,3.874-3.782,3.1-5.411-.667-1.408-2.246-2.048-3.042-1.672l-1.016.481c-.613.29-.8.711-.24,1.885l-.339.161Z" transform="translate(-860.904 -766.65)" fill="#253572" stroke="#253572" stroke-width="1"/>
    <path id="패스_81" data-name="패스 81" d="M871.566,868.375l-.368.075c-.2-.989-.542-1.287-1.3-1.132l-7.472,1.524c-.65.133-.86.543-.659,1.533l-.354.071-.893-4.379c-.7-3.446,1.546-5.406,4.074-5.922,2.557-.522,5.379.4,6.082,3.849Zm-1.854-1.947c.763-.155.959-.563.8-1.34l-.207-1.017c-.534-2.614-3.146-3.449-5.519-2.964-2.358.481-4.449,2.276-3.916,4.889l.207,1.017c.159.777.513,1.073,1.163.939Z" transform="translate(-858.513 -758.383)" fill="#253572" stroke="#253572" stroke-width="1"/>
    <path id="패스_82" data-name="패스 82" d="M868.737,853.22l-.361.026c-.07-.979-.4-1.345-1.091-1.3l-7.711.556c-.662.048-.893.455-.822,1.433l-.36.025-.545-7.553,2.373-1.183.159.205c-.826.782-2.137,1.456-1.976,3.686l.1,1.41c.054.748.341,1.117,1,1.07l3.467-.25-.158-2.187c-.072-1.007-.544-1.522-1.91-1.424l-.025-.345,4.028-.29.025.345c-1.28.092-1.8.679-1.729,1.687l.157,2.187,3.857-.278c.69-.05.964-.46.909-1.223l-.1-1.352c-.121-1.669-.885-2.641-2.564-3.677l.1-.267,2.6.8Z" transform="translate(-857.718 -753.532)" fill="#253572" stroke="#253572" stroke-width="1"/>
    <path id="패스_83" data-name="패스 83" d="M868.011,838.653l-.361-.019c.057-1.08-.26-1.384-.951-1.42l-7.746-.4c-.633-.033-.878.244-.934,1.323l-.36-.018.242-4.679c.115-2.232,1.254-3.328,2.723-3.252a2.617,2.617,0,0,1,2.49,2.943L867.382,831c.548-.274.7-.671.738-1.434l.361.019-.1,1.944-5.3,2.584-.1,2,3.771.2c.692.036,1.042-.321,1.094-1.33l.36.019Zm-5.4-2.56.137-2.664a2.034,2.034,0,0,0-2.179-2.249c-1.368-.071-2.235.794-2.316,2.349l-.067,1.281c-.035.677.176,1.063.81,1.1Z" transform="translate(-857.659 -748.845)" fill="#253572" stroke="#253572" stroke-width="1"/>
    <path id="패스_84" data-name="패스 84" d="M868.764,822.046l-.354-.07c.207-1.047-.017-1.4-.711-1.537l-7.71-1.525c-.565-.112-.842.171-1.043,1.189l-.354-.069.5-2.546,9.528-1.57-8.215-5.065.521-2.632.353.07c-.223,1.132-.042,1.4.51,1.511l7.71,1.525c.622.123,1.035-.1,1.245-1.165l.353.069-.707,3.579-.354-.07c.2-1.032-.088-1.414-.711-1.537l-8.36-1.654-.031.156,9.065,5.6-.045.227-10.308,1.724-.033.17,8.162,1.615c.694.137,1.038-.119,1.245-1.166l.354.071Z" transform="translate(-857.951 -742.159)" fill="#253572" stroke="#253572" stroke-width="1"/>
    <path id="패스_85" data-name="패스 85" d="M865.287,796.982l9.878-.208a1.309,1.309,0,0,0,1.482-1l.339.123-1.248,3.445-.339-.123c.325-.9.364-1.341-.057-1.494a1.408,1.408,0,0,0-.436-.066l-2.6.056-1.479,4.081,1.7,1.445a2.417,2.417,0,0,0,.574.362c.488.177.766-.167,1.091-1.062l.339.123-1.071,2.956-.339-.122c.27-.746.192-1.082-.889-1.948l-6.905-5.709Zm.745.823,4.452,3.716,1.376-3.8Z" transform="translate(-860.049 -738.26)" fill="#253572" stroke="#253572" stroke-width="1"/>
    <path id="패스_86" data-name="패스 86" d="M872.257,781.006l.322.161c-.483.967-.411,1.373.207,1.682l5.727,2.862c1.767.883,2.174,2.134,1.677,3.127-.509,1.019-1.115,1.683-1.863,1.309a.694.694,0,0,1-.419-.935.666.666,0,0,1,1.006-.3.619.619,0,0,0,.935-.258c.361-.722-.3-1.426-1.426-1.986l-6.037-3.016c-.619-.309-.981-.135-1.522.948l-.323-.161Z" transform="translate(-861.695 -733.633)" fill="#253572" stroke="#253572" stroke-width="1"/>
    <path id="패스_87" data-name="패스 87" d="M883.441,780.414l-.3-.2c.53-.825.485-1.316-.1-1.69l-6.5-4.173c-.558-.358-.987-.171-1.516.654l-.3-.2,4.087-6.371,2.608.475,0,.26c-1.129.131-2.581-.115-3.787,1.766l-.764,1.189c-.405.631-.4,1.1.162,1.457l2.923,1.877,1.184-1.845c.545-.849.477-1.544-.676-2.283l.187-.291,3.4,2.18-.187.292c-1.08-.693-1.849-.536-2.393.314l-1.184,1.845,3.252,2.086c.583.374,1.048.209,1.46-.433l.733-1.141c.9-1.408.873-2.643.148-4.478l.238-.156,1.606,2.2Z" transform="translate(-863.003 -729.698)" fill="#253572" stroke="#253572" stroke-width="1"/>
    <path id="패스_88" data-name="패스 88" d="M896.038,759.364a4.247,4.247,0,0,1-.281,5.065c-1.608,1.927-4.416,2.252-7.129-.012-2.237-1.867-3.058-4.712-1.357-6.75a5.415,5.415,0,0,1,1.6-1.312l.4-1,2.665.927-.06.251c-1.147-.112-3.094-.121-4.313,1.341-1.3,1.562-.5,3.958,1.69,5.788,2.1,1.756,4.681,1.82,6.159.048.943-1.13,1.113-2.435.367-4.222Z" transform="translate(-866.651 -725.598)" fill="#253572" stroke="#253572" stroke-width="1"/>
    <path id="패스_89" data-name="패스 89" d="M903.936,754.209l-.244-.264c.659-.6,1.151-1.156.663-1.687l-5.424-5.9c-.409-.446-.777-.421-1.457.2a3.552,3.552,0,0,0-.945,3.765l-.227.052-.994-2.318,6.295-5.785,2.3,1.251-.112.24c-1.29-.38-2.384-.825-3.7.385-.733.673-.916,1.155-.506,1.6l5.424,5.9c.488.53.961.193,1.736-.519l.244.266Z" transform="translate(-869.453 -721.5)" fill="#253572" stroke="#253572" stroke-width="1"/>
    <path id="패스_90" data-name="패스 90" d="M929.382,735.8a2.617,2.617,0,0,1-1.16,2.243,3.216,3.216,0,0,1-2.115.26,4.5,4.5,0,0,1-1.817,2.184,3.262,3.262,0,0,1-4.338-.812c-.757-1.261-.643-2.557.589-4.288a6.57,6.57,0,0,1-1.748-1.709,2.111,2.111,0,0,1,.858-3.054,1.9,1.9,0,0,1,2.68.628c.438.729.593,1.662-1,3.679a22.059,22.059,0,0,0,4.595,2.474,6.142,6.142,0,0,0-.537-3.613c-.274-.458-.677-.485-1.395-.055l-.185-.309,2.67-1.6.186.309a1.155,1.155,0,0,0-.646,1.531,7.913,7.913,0,0,1,.3,3.87,2.036,2.036,0,0,0,1.531-.111,2.177,2.177,0,0,0,1.264-1.733Zm-7.662-4.249a1.423,1.423,0,0,0-1.867-.561,1.4,1.4,0,0,0-.477,1.951,7.693,7.693,0,0,0,1.637,1.776C922.24,733.17,922.144,732.252,921.72,731.547Zm-.843,4.088a2.606,2.606,0,0,0-.409,3.02,2.833,2.833,0,0,0,3.933,1,2.954,2.954,0,0,0,1.3-1.484A18.28,18.28,0,0,1,920.877,735.635Z" transform="translate(-876.703 -717.753)" fill="#253572" stroke="#253572" stroke-width="1"/>
  </g>
</svg>
